<?xml version="1.0" encoding="UTF-8" standalone="no"?>
<!DOCTYPE svg PUBLIC "-//W3C//DTD SVG 1.1//EN" "http://www.w3.org/Graphics/SVG/1.1/DTD/svg11.dtd">
<!-- Generated by Microsoft Visio, SVG Export Høyre_vinkeljern.svg Page-1 -->
<svg xmlns="http://www.w3.org/2000/svg" xmlns:xlink="http://www.w3.org/1999/xlink" xmlns:ev="http://www.w3.org/2001/xml-events"
		xmlns:v="http://schemas.microsoft.com/visio/2003/SVGExtensions/" width="36.5333in" height="5.75535in"
		viewBox="0 0 2630.4 414.385" xml:space="preserve" color-interpolation-filters="sRGB" class="st3">
	<v:documentProperties v:langID="1044" v:metric="true" v:viewMarkup="false">
		<v:userDefs>
			<v:ud v:nameU="msvNoAutoConnect" v:val="VT0(1):26"/>
		</v:userDefs>
	</v:documentProperties>

	<style type="text/css">
	<![CDATA[
		.st1 {fill:none;stroke:none;stroke-linecap:round;stroke-linejoin:round;stroke-width:0.75}
		.st2 {stroke:#000000;stroke-linecap:round;stroke-linejoin:round;stroke-width:0.64009}
		.st3 {fill:none;fill-rule:evenodd;font-size:12px;overflow:visible;stroke-linecap:square;stroke-miterlimit:3}
	]]>
	</style>

	<g v:mID="0" v:index="1" v:groupContext="foregroundPage">
		<title>Page-1</title>
		<v:pageProperties v:drawingScale="0.0393701" v:pageScale="0.0393701" v:drawingUnits="24" v:shadowOffsetX="8.50394"
				v:shadowOffsetY="-8.50394"/>
		<g id="shape55-1" v:mID="55" v:groupContext="shape" transform="translate(18.375,-18.375)">
			<title>Sheet.55</title>
			<rect x="0" y="36.75" width="2592.4" height="377.635" class="st1"/>
		</g>
		<g id="shape56-3" v:mID="56" v:groupContext="shape" transform="translate(48.6186,-173.702)">
			<title>Sheet.56</title>
			<path d="M0.62 395.09 L-0 414.39" class="st2"/>
		</g>
		<g id="shape57-6" v:mID="57" v:groupContext="shape" transform="translate(49.2436,-193)">
			<title>Sheet.57</title>
			<path d="M-0 414.39 L150.61 405.16" class="st2"/>
		</g>
		<g id="shape58-9" v:mID="58" v:groupContext="shape" transform="translate(199.851,-202.23)">
			<title>Sheet.58</title>
			<path d="M0 414.39 L1537.95 323.77" class="st2"/>
		</g>
		<g id="shape59-12" v:mID="59" v:groupContext="shape" transform="translate(1737.8,-292.847)">
			<title>Sheet.59</title>
			<path d="M-0 414.39 L874.28 362.36" class="st2"/>
		</g>
		<g id="shape60-15" v:mID="60" v:groupContext="shape" transform="translate(2611.45,-324.731)">
			<title>Sheet.60</title>
			<path d="M0.62 394.25 L0 414.39" class="st2"/>
		</g>
		<g id="shape61-18" v:mID="61" v:groupContext="shape" transform="translate(48.6186,-173.702)">
			<title>Sheet.61</title>
			<path d="M0 414.39 L2562.83 263.36" class="st2"/>
		</g>
		<g id="shape62-21" v:mID="62" v:groupContext="shape" transform="translate(26.1212,-193)">
			<title>Sheet.62</title>
			<path d="M0 388.37 L23.12 414.39" class="st2"/>
		</g>
		<g id="shape63-24" v:mID="63" v:groupContext="shape" transform="translate(26.1212,-219.011)">
			<title>Sheet.63</title>
			<path d="M103.11 379.15 L0 414.39" class="st2"/>
		</g>
		<g id="shape64-27" v:mID="64" v:groupContext="shape" transform="translate(129.234,-254.251)">
			<title>Sheet.64</title>
			<path d="M8.12 412.71 L3.75 413.55 L0 414.39" class="st2"/>
		</g>
		<g id="shape65-30" v:mID="65" v:groupContext="shape" transform="translate(137.358,-255.929)">
			<title>Sheet.65</title>
			<path d="M0 414.39 L96.86 408.51" class="st2"/>
		</g>
		<g id="shape67-33" v:mID="67" v:groupContext="shape" transform="translate(25.4963,-198.873)">
			<title>Sheet.67</title>
			<path d="M0.62 394.25 L0 414.39" class="st2"/>
		</g>
		<g id="shape68-36" v:mID="68" v:groupContext="shape" transform="translate(25.4963,-173.702)">
			<title>Sheet.68</title>
			<path d="M0 389.21 L23.12 414.39" class="st2"/>
		</g>
		<g id="shape69-39" v:mID="69" v:groupContext="shape" transform="translate(34.8702,-176.219)">
			<title>Sheet.69</title>
			<path d="M2.5 404.32 L1.25 406.83 L0.62 409.35 L0 411.87 L0 414.39" class="st2"/>
		</g>
		<g id="shape70-42" v:mID="70" v:groupContext="shape" transform="translate(28.6209,-18.4781)">
			<title>Sheet.70</title>
			<path d="M0 414.39 L6.25 257.48" class="st2"/>
		</g>
		<g id="shape71-45" v:mID="71" v:groupContext="shape" transform="translate(18.6221,-18.4781)">
			<title>Sheet.71</title>
			<path d="M10 414.39 L-0 410.19" class="st2"/>
		</g>
		<g id="shape72-48" v:mID="72" v:groupContext="shape" transform="translate(18.6221,-22.6733)">
			<title>Sheet.72</title>
			<path d="M0 414.39 L6.87 238.19" class="st2"/>
		</g>
		<g id="shape73-51" v:mID="73" v:groupContext="shape" transform="translate(234.222,-261.802)">
			<title>Sheet.73</title>
			<path d="M0 414.39 L1537.95 322.93" class="st2"/>
		</g>
		<g id="shape75-54" v:mID="75" v:groupContext="shape" transform="translate(372.332,-237.47)">
			<title>Sheet.75</title>
			<path d="M8.12 405.99 L5.62 405.99 L3.12 406.83 L1.87 407.67 L0.62 408.51 L0 409.35 L0.62 410.19 L1.87 411.87 L3.12 412.71
						 L5.62 413.55 L8.12 413.55 L11.25 414.39 L13.75 414.39 L16.87 414.39 L18.75 413.55 L20.62 412.71 L22.5 411.87
						 L23.12 411.03 L23.12 410.19 L21.87 409.35 L20.62 408.51 L18.75 407.67 L16.25 406.83 L13.75 405.99 L10.62
						 405.99 L8.12 405.99 L8.12 405.99" class="st2"/>
		</g>
		<g id="shape76-57" v:mID="76" v:groupContext="shape" transform="translate(1494.7,-303.754)">
			<title>Sheet.76</title>
			<path d="M8.12 405.99 L5.62 405.99 L3.12 406.83 L1.87 407.67 L0.62 408.51 L0 409.35 L0.62 410.19 L1.87 411.03 L3.75 412.71
						 L5.62 412.71 L8.12 413.55 L11.25 414.39 L13.75 414.39 L16.87 414.39 L18.75 413.55 L21.25 412.71 L22.5 411.87
						 L23.12 411.03 L23.12 410.19 L22.5 409.35 L20.62 407.67 L18.75 406.83 L16.25 406.83 L13.75 405.99 L10.62
						 405.99 L8.12 405.99 L8.12 405.99" class="st2"/>
		</g>
		<g id="shape77-60" v:mID="77" v:groupContext="shape" transform="translate(28.6209,-18.4781)">
			<title>Sheet.77</title>
			<path d="M98.11 379.98 L0 414.39" class="st2"/>
		</g>
		<g id="shape78-63" v:mID="78" v:groupContext="shape" transform="translate(54.243,-150.209)">
			<title>Sheet.78</title>
			<path d="M10 402.64 L10 400.12 L9.37 397.6 L8.12 395.93 L6.87 395.09 L5.62 394.25 L4.37 395.09 L2.5 396.77 L1.25 399.28
						 L0.62 401.8 L0 405.16 L0 407.67 L0 410.19 L0.62 412.71 L1.87 413.55 L3.12 414.39 L5 414.39 L6.25 412.71
						 L7.5 411.03 L8.75 408.51 L9.37 405.99 L10 402.64 L10 402.64" class="st2"/>
		</g>
		<g id="shape79-66" v:mID="79" v:groupContext="shape" transform="translate(104.862,-167.829)">
			<title>Sheet.79</title>
			<path d="M0 405.16 L0 405.99 L0 409.35 L0.62 411.87 L1.25 413.55 L2.5 414.39 L4.37 414.39 L5.62 413.55 L6.87 411.87 L8.12
						 410.19 L9.37 406.83 L9.37 405.16" class="st2"/>
		</g>
		<g id="shape80-69" v:mID="80" v:groupContext="shape" transform="translate(101.113,-79.7286)">
			<title>Sheet.80</title>
			<path d="M10 402.64 L10 400.12 L9.37 397.6 L8.75 395.93 L7.5 395.09 L6.25 395.09 L4.37 395.93 L3.12 396.77 L1.87 399.28
						 L1.25 401.8 L0.62 405.16 L0 407.67 L0.62 410.19 L1.25 412.71 L2.5 414.39 L3.75 414.39 L5 414.39 L6.87 413.55
						 L8.12 411.03 L9.37 408.51 L10 405.99 L10 402.64 L10 402.64" class="st2"/>
		</g>
		<g id="shape81-72" v:mID="81" v:groupContext="shape" transform="translate(50.4934,-62.1086)">
			<title>Sheet.81</title>
			<path d="M0 406.83 L0.62 409.35 L0.62 411.87 L1.87 413.55 L3.12 414.39 L4.37 414.39 L6.25 414.39 L7.5 412.71 L8.75 410.19
						 L9.37 407.67 L10 404.32 L10 401.8 L10 399.28 L9.37 396.77 L8.12 395.09 L6.87 395.09 L5 395.09 L3.75 395.93
						 L2.5 398.44 L1.25 400.96 L0.62 403.48 L0 406.83 L0 406.83" class="st2"/>
		</g>
		<g id="shape82-75" v:mID="82" v:groupContext="shape" transform="translate(126.735,-52.8791)">
			<title>Sheet.82</title>
			<path d="M8.12 412.71 L3.75 413.55 L0 414.39" class="st2"/>
		</g>
		<g id="shape83-78" v:mID="83" v:groupContext="shape" transform="translate(134.859,-54.5572)">
			<title>Sheet.83</title>
			<path d="M0 414.39 L2289.11 279.3" class="st2"/>
		</g>
		<g id="shape84-81" v:mID="84" v:groupContext="shape" transform="translate(2426.47,-391.016)">
			<title>Sheet.84</title>
			<path d="M10 414.39 L5 413.55 L0 413.55" class="st2"/>
		</g>
		<g id="shape85-84" v:mID="85" v:groupContext="shape" transform="translate(2436.47,-370.878)">
			<title>Sheet.85</title>
			<path d="M-0 394.25 L153.11 414.39" class="st2"/>
		</g>
		<g id="shape86-87" v:mID="86" v:groupContext="shape" transform="translate(2589.58,-344.868)">
			<title>Sheet.86</title>
			<path d="M0 388.37 L22.5 414.39" class="st2"/>
		</g>
		<g id="shape87-90" v:mID="87" v:groupContext="shape" transform="translate(1772.17,-353.258)">
			<title>Sheet.87</title>
			<path d="M-0 414.39 L654.3 375.79" class="st2"/>
		</g>
		<g id="shape88-93" v:mID="88" v:groupContext="shape" transform="translate(2579.58,-169.507)">
			<title>Sheet.88</title>
			<path d="M-0 414.39 L5.62 260.84" class="st2"/>
		</g>
		<g id="shape89-96" v:mID="89" v:groupContext="shape" transform="translate(2539.58,-297.881)">
			<title>Sheet.89</title>
			<path d="M0 404.32 L0 400.96 L1.25 398.44 L3.12 396.77 L5 395.09 L6.87 395.09 L9.37 395.93 L11.25 396.77 L13.12 399.28
						 L14.37 401.8 L14.37 404.32 L14.37 407.67 L13.75 410.19 L12.5 412.71 L10.62 414.39 L8.75 414.39 L6.25 414.39
						 L4.37 413.55 L2.5 411.87 L0.62 409.35 L0 406.83 L0 404.32 L0 404.32" class="st2"/>
		</g>
		<g id="shape90-99" v:mID="90" v:groupContext="shape" transform="translate(2464.59,-307.95)">
			<title>Sheet.90</title>
			<path d="M0 405.99 L0.62 409.35 L2.5 411.87 L4.37 413.55 L6.87 414.39 L9.37 413.55 L11.87 411.87 L13.12 408.51 L13.75
						 405.16" class="st2"/>
		</g>
		<g id="shape91-102" v:mID="91" v:groupContext="shape" transform="translate(2460.84,-219.011)">
			<title>Sheet.91</title>
			<path d="M0 403.48 L0.62 400.12 L1.25 397.6 L3.12 395.93 L5 395.09 L6.87 394.25 L9.37 395.09 L11.25 395.93 L13.12 398.44
						 L14.37 400.96 L15 403.48 L14.37 406.83 L13.75 409.35 L12.5 411.87 L10.62 413.55 L8.75 414.39 L6.25 413.55
						 L4.37 412.71 L2.5 411.03 L1.25 408.51 L0 405.99 L0 403.48 L0 403.48" class="st2"/>
		</g>
		<g id="shape92-105" v:mID="92" v:groupContext="shape" transform="translate(2535.83,-208.942)">
			<title>Sheet.92</title>
			<path d="M15 405.16 L14.37 408.51 L13.75 411.03 L11.87 412.71 L10 413.55 L8.12 414.39 L5.62 413.55 L3.75 412.71 L1.87
						 410.19 L0.62 407.67 L0 405.16 L0.62 401.8 L1.25 399.28 L2.5 396.77 L4.37 395.09 L6.25 394.25 L8.75 394.25
						 L10.62 395.93 L12.5 397.6 L13.75 399.28 L15 402.64 L15 405.16 L15 405.16" class="st2"/>
		</g>
		<g id="shape93-108" v:mID="93" v:groupContext="shape" transform="translate(2433.97,-169.507)">
			<title>Sheet.93</title>
			<path d="M-0 394.25 L145.61 414.39" class="st2"/>
		</g>
		<g id="shape94-111" v:mID="94" v:groupContext="shape" transform="translate(2582.08,-174.541)">
			<title>Sheet.94</title>
			<path d="M-0 414.39 L5.62 265.03" class="st2"/>
		</g>
		<g id="shape95-114" v:mID="95" v:groupContext="shape" transform="translate(2579.58,-169.507)">
			<title>Sheet.95</title>
			<path d="M-0 414.39 L2.5 409.35" class="st2"/>
		</g>
		<g id="shape96-117" v:mID="96" v:groupContext="shape" transform="translate(2542.08,-302.076)">
			<title>Sheet.96</title>
			<path d="M0.62 400.96 L0 405.16 L1.25 409.35 L3.12 412.71 L5.62 414.39 L8.75 414.39 L11.87 412.71" class="st2"/>
		</g>
		<g id="shape97-120" v:mID="97" v:groupContext="shape" transform="translate(2468.34,-312.145)">
			<title>Sheet.97</title>
			<path d="M0 410.19 L1.87 412.71 L5 414.39 L7.5 414.39 L10.62 412.71" class="st2"/>
		</g>
		<g id="shape98-123" v:mID="98" v:groupContext="shape" transform="translate(2538.96,-213.976)">
			<title>Sheet.98</title>
			<path d="M0.62 400.96 L0 405.16 L1.25 409.35 L3.12 412.71 L5.62 414.39 L8.75 414.39 L11.87 412.71" class="st2"/>
		</g>
		<g id="shape99-126" v:mID="99" v:groupContext="shape" transform="translate(2423.97,-188.805)">
			<title>Sheet.99</title>
			<path d="M10 414.39 L5 413.55 L0 413.55" class="st2"/>
		</g>
		<g id="shape100-129" v:mID="100" v:groupContext="shape" transform="translate(2463.34,-224.045)">
			<title>Sheet.100</title>
			<path d="M0.62 400.96 L0 405.16 L1.25 409.35 L3.12 412.71 L5.62 414.39 L8.75 414.39 L11.87 412.71" class="st2"/>
		</g>
		<g id="shape101-132" v:mID="101" v:groupContext="shape" transform="translate(34.8702,-175.38)">
			<title>Sheet.101</title>
			<path d="M8.75 411.03 L-0 414.39" class="st2"/>
		</g>
		<g id="shape102-135" v:mID="102" v:groupContext="shape" transform="translate(126.735,-52.8791)">
			<title>Sheet.102</title>
			<path d="M-0 414.39 L5 289.37" class="st2"/>
		</g>
		<g id="shape103-138" v:mID="103" v:groupContext="shape" transform="translate(134.859,-54.5572)">
			<title>Sheet.103</title>
			<path d="M5 290.21 L0 414.39" class="st2"/>
		</g>
		<g id="shape104-141" v:mID="104" v:groupContext="shape" transform="translate(2423.97,-189.644)">
			<title>Sheet.104</title>
			<path d="M0 414.39 L5 290.21" class="st2"/>
		</g>
		<g id="shape105-144" v:mID="105" v:groupContext="shape" transform="translate(2433.97,-189.644)">
			<title>Sheet.105</title>
			<path d="M4.37 289.37 L-0 414.39" class="st2"/>
		</g>
	</g>
</svg>
