<?xml version="1.0" encoding="UTF-8" standalone="no"?>
<!DOCTYPE svg PUBLIC "-//W3C//DTD SVG 1.1//EN" "http://www.w3.org/Graphics/SVG/1.1/DTD/svg11.dtd">
<!-- Generated by Microsoft Visio, SVG Export Vinkeljern_80x80x8_høyre.svg Page-1 -->
<svg xmlns="http://www.w3.org/2000/svg" xmlns:xlink="http://www.w3.org/1999/xlink" xmlns:ev="http://www.w3.org/2001/xml-events"
		xmlns:v="http://schemas.microsoft.com/visio/2003/SVGExtensions/" width="5.09485in" height="2.30595in"
		viewBox="0 0 366.829 166.028" xml:space="preserve" color-interpolation-filters="sRGB" class="st3">
	<v:documentProperties v:langID="1044" v:metric="true" v:viewMarkup="false">
		<v:userDefs>
			<v:ud v:nameU="msvNoAutoConnect" v:val="VT0(1):26"/>
		</v:userDefs>
	</v:documentProperties>

	<style type="text/css">
	<![CDATA[
		.st1 {fill:none;stroke:none;stroke-linecap:round;stroke-linejoin:round;stroke-width:0.75}
		.st2 {stroke:#000000;stroke-linecap:round;stroke-linejoin:round;stroke-width:0.146816}
		.st3 {fill:none;fill-rule:evenodd;font-size:12px;overflow:visible;stroke-linecap:square;stroke-miterlimit:3}
	]]>
	</style>

	<g v:mID="0" v:index="1" v:groupContext="foregroundPage">
		<title>Page-1</title>
		<v:pageProperties v:drawingScale="0.0393701" v:pageScale="0.0393701" v:drawingUnits="24" v:shadowOffsetX="8.50394"
				v:shadowOffsetY="-8.50394"/>
		<g id="shape1001-1" v:mID="1001" v:groupContext="shape" transform="translate(18.375,-18.375)">
			<title>Sheet.1001</title>
			<rect x="0" y="36.75" width="330.079" height="129.278" class="st1"/>
		</g>
		<g id="shape1002-3" v:mID="1002" v:groupContext="shape" transform="translate(20.5694,-41.4356)">
			<title>Sheet.1002</title>
			<path d="M0 163.04 L0.19 166.03" class="st2"/>
		</g>
		<g id="shape1003-6" v:mID="1003" v:groupContext="shape" transform="translate(20.5694,-44.4288)">
			<title>Sheet.1003</title>
			<path d="M0 166.03 L19.23 160.2" class="st2"/>
		</g>
		<g id="shape1004-9" v:mID="1004" v:groupContext="shape" transform="translate(39.7958,-50.2575)">
			<title>Sheet.1004</title>
			<path d="M0 166.03 L196.6 106.69" class="st2"/>
		</g>
		<g id="shape1005-12" v:mID="1005" v:groupContext="shape" transform="translate(236.392,-109.595)">
			<title>Sheet.1005</title>
			<path d="M0 166.03 L111.72 132.32" class="st2"/>
		</g>
		<g id="shape1006-15" v:mID="1006" v:groupContext="shape" transform="translate(348.114,-140.315)">
			<title>Sheet.1006</title>
			<path d="M0 163.04 L0.22 166.03" class="st2"/>
		</g>
		<g id="shape1007-18" v:mID="1007" v:groupContext="shape" transform="translate(20.7592,-41.4356)">
			<title>Sheet.1007</title>
			<path d="M0 166.03 L327.58 67.15" class="st2"/>
		</g>
		<g id="shape1008-21" v:mID="1008" v:groupContext="shape" transform="translate(18.3243,-44.4288)">
			<title>Sheet.1008</title>
			<path d="M0 161.88 L2.25 166.03" class="st2"/>
		</g>
		<g id="shape1009-24" v:mID="1009" v:groupContext="shape" transform="translate(18.3243,-48.5772)">
			<title>Sheet.1009</title>
			<path d="M13.88 156.58 L0 166.03" class="st2"/>
		</g>
		<g id="shape1010-27" v:mID="1010" v:groupContext="shape" transform="translate(32.2381,-58.0292)">
			<title>Sheet.1010</title>
			<path d="M1.04 165.5 L0.79 165.61 L0.51 165.71 L0.25 165.87 L0 166.03" class="st2"/>
		</g>
		<g id="shape1011-30" v:mID="1011" v:groupContext="shape" transform="translate(33.2816,-58.5543)">
			<title>Sheet.1011</title>
			<path d="M0 166.03 L12.33 162.3" class="st2"/>
		</g>
		<g id="shape1012-33" v:mID="1012" v:groupContext="shape" transform="translate(39.7958,-50.2575)">
			<title>Sheet.1012</title>
			<path d="M5.82 154 L-0 166.03" class="st2"/>
		</g>
		<g id="shape1013-36" v:mID="1013" v:groupContext="shape" transform="translate(18.3243,-45.584)">
			<title>Sheet.1013</title>
			<path d="M0 163.04 L0.19 166.03" class="st2"/>
		</g>
		<g id="shape1014-39" v:mID="1014" v:groupContext="shape" transform="translate(18.514,-41.4356)">
			<title>Sheet.1014</title>
			<path d="M-0 161.88 L2.25 166.03" class="st2"/>
		</g>
		<g id="shape1015-42" v:mID="1015" v:groupContext="shape" transform="translate(45.6143,-62.2826)">
			<title>Sheet.1015</title>
			<path d="M0 166.03 L196.6 106.69" class="st2"/>
		</g>
		<g id="shape1016-45" v:mID="1016" v:groupContext="shape" transform="translate(236.392,-109.595)">
			<title>Sheet.1016</title>
			<path d="M0 166.03 L5.82 154" class="st2"/>
		</g>
		<g id="shape1017-48" v:mID="1017" v:groupContext="shape" transform="translate(62.6588,-61.9151)">
			<title>Sheet.1017</title>
			<path d="M1.04 164.56 L0.73 164.72 L0.44 164.87 L0.19 165.03 L0.06 165.24 L0 165.45 L0 165.61 L0.13 165.77 L0.32 165.87
						 L0.57 165.98 L0.89 166.03 L1.23 166.03 L1.58 165.92 L1.93 165.82 L2.25 165.71 L2.5 165.5 L2.69 165.35 L2.81
						 165.14 L2.81 164.98 L2.75 164.77 L2.59 164.66 L2.37 164.56 L2.09 164.45 L1.77 164.45 L1.39 164.51 L1.04
						 164.56 L1.04 164.56" class="st2"/>
		</g>
		<g id="shape1018-51" v:mID="1018" v:groupContext="shape" transform="translate(206.098,-105.237)">
			<title>Sheet.1018</title>
			<path d="M1.04 164.61 L0.73 164.72 L0.44 164.87 L0.22 165.08 L0.06 165.24 L0 165.45 L0.03 165.66 L0.13 165.82 L0.32 165.92
						 L0.57 166.03 L0.89 166.03 L1.23 166.03 L1.61 165.98 L1.93 165.87 L2.25 165.71 L2.53 165.56 L2.72 165.35
						 L2.81 165.19 L2.85 164.98 L2.78 164.82 L2.62 164.66 L2.37 164.56 L2.09 164.51 L1.77 164.51 L1.42 164.51
						 L1.04 164.61 L1.04 164.61" class="st2"/>
		</g>
		<g id="shape1019-54" v:mID="1019" v:groupContext="shape" transform="translate(19.8421,-42.1708)">
			<title>Sheet.1019</title>
			<path d="M0.03 166.03 L0 165.45 L0.03 165.14" class="st2"/>
		</g>
		<g id="shape1020-57" v:mID="1020" v:groupContext="shape" transform="translate(19.8738,-18.2256)">
			<title>Sheet.1020</title>
			<path d="M1.58 166.03 L-0 142.08" class="st2"/>
		</g>
		<g id="shape1021-60" v:mID="1021" v:groupContext="shape" transform="translate(20.3165,-18.2256)">
			<title>Sheet.1021</title>
			<path d="M1.14 166.03 L0 165.61" class="st2"/>
		</g>
		<g id="shape1022-63" v:mID="1022" v:groupContext="shape" transform="translate(18.514,-18.6457)">
			<title>Sheet.1022</title>
			<path d="M1.8 166.03 L-0 139.09" class="st2"/>
		</g>
		<g id="shape1023-66" v:mID="1023" v:groupContext="shape" transform="translate(21.4549,-18.2256)">
			<title>Sheet.1023</title>
			<path d="M13.22 157.05 L-0 166.03" class="st2"/>
		</g>
		<g id="shape1024-69" v:mID="1024" v:groupContext="shape" transform="translate(23.6052,-41.2256)">
			<title>Sheet.1024</title>
			<path d="M0.6 166.03 L0.54 165.61 L0.44 165.29 L0.28 165.03 L0.09 164.93 L0 164.93" class="st2"/>
		</g>
		<g id="shape1025-72" v:mID="1025" v:groupContext="shape" transform="translate(22.8463,-39.1776)">
			<title>Sheet.1025</title>
			<path d="M0.66 162.93 L0.63 162.93 L0.44 163.09 L0.25 163.4 L0.13 163.77 L0.03 164.24 L0 164.66 L0.03 165.14 L0.13 165.5
						 L0.25 165.82 L0.44 165.98 L0.63 166.03 L0.85 165.92 L1.04 165.66 L1.2 165.35 L1.3 164.93 L1.36 164.45 L1.36
						 163.98" class="st2"/>
		</g>
		<g id="shape1026-75" v:mID="1026" v:groupContext="shape" transform="translate(24.206,-41.2256)">
			<title>Sheet.1026</title>
			<path d="M-0 166.03 L0.06 166.03" class="st2"/>
		</g>
		<g id="shape1027-78" v:mID="1027" v:groupContext="shape" transform="translate(29.8664,-43.8511)">
			<title>Sheet.1027</title>
			<path d="M0 165.66 L0 165.71 L0.16 165.92 L0.35 166.03 L0.57 165.98 L0.76 165.82 L0.92 165.56 L1.01 165.35" class="st2"/>
		</g>
		<g id="shape1028-81" v:mID="1028" v:groupContext="shape" transform="translate(30.5937,-30.3557)">
			<title>Sheet.1028</title>
			<path d="M1.36 163.98 L1.3 163.56 L1.17 163.25 L1.01 162.98 L0.82 162.88 L0.63 162.93 L0.44 163.09 L0.25 163.4 L0.13
						 163.77 L0.03 164.24 L0 164.66 L0.03 165.14 L0.13 165.5 L0.25 165.82 L0.41 165.98 L0.63 166.03 L0.82 165.92
						 L1.01 165.66 L1.17 165.35 L1.3 164.93 L1.36 164.45 L1.36 163.98 L1.36 163.98" class="st2"/>
		</g>
		<g id="shape1029-84" v:mID="1029" v:groupContext="shape" transform="translate(23.7633,-25.7347)">
			<title>Sheet.1029</title>
			<path d="M0 164.93 L0.06 165.35 L0.16 165.71 L0.32 165.92 L0.51 166.03 L0.73 166.03 L0.92 165.87 L1.11 165.56 L1.23 165.19
						 L1.33 164.72 L1.36 164.24 L1.33 163.82 L1.23 163.4 L1.11 163.14 L0.92 162.98 L0.73 162.93 L0.51 163.04 L0.32
						 163.25 L0.16 163.61 L0.06 164.03 L0 164.51 L0 164.93 L0 164.93" class="st2"/>
		</g>
		<g id="shape1030-87" v:mID="1030" v:groupContext="shape" transform="translate(23.0676,-41.6456)">
			<title>Sheet.1030</title>
			<path d="M0 166.03 L0 165.98" class="st2"/>
		</g>
		<g id="shape1031-90" v:mID="1031" v:groupContext="shape" transform="translate(22.8463,-40.2278)">
			<title>Sheet.1031</title>
			<path d="M0 166.03 L0.09 165.71 L0.16 165.35 L0.19 164.98 L0.19 164.66" class="st2"/>
		</g>
		<g id="shape1032-93" v:mID="1032" v:groupContext="shape" transform="translate(23.953,-28.1502)">
			<title>Sheet.1032</title>
			<path d="M0 166.03 L0 165.98" class="st2"/>
		</g>
		<g id="shape1033-96" v:mID="1033" v:groupContext="shape" transform="translate(23.7633,-26.7849)">
			<title>Sheet.1033</title>
			<path d="M0 166.03 L0.09 165.71 L0.16 165.35 L0.19 164.98 L0.19 164.66" class="st2"/>
		</g>
		<g id="shape1034-99" v:mID="1034" v:groupContext="shape" transform="translate(30.7835,-32.8237)">
			<title>Sheet.1034</title>
			<path d="M0 166.03 L0 165.98" class="st2"/>
		</g>
		<g id="shape1035-102" v:mID="1035" v:groupContext="shape" transform="translate(30.5937,-31.4059)">
			<title>Sheet.1035</title>
			<path d="M0 166.03 L0.09 165.71 L0.16 165.35 L0.19 164.98 L0.19 164.66" class="st2"/>
		</g>
		<g id="shape1036-105" v:mID="1036" v:groupContext="shape" transform="translate(34.7046,-27.205)">
			<title>Sheet.1036</title>
			<path d="M1.04 165.5 L0.79 165.61 L0.51 165.71 L0.25 165.87 L0 166.03" class="st2"/>
		</g>
		<g id="shape1037-108" v:mID="1037" v:groupContext="shape" transform="translate(35.7482,-27.7301)">
			<title>Sheet.1037</title>
			<path d="M0 166.03 L292.57 77.76" class="st2"/>
		</g>
		<g id="shape1038-111" v:mID="1038" v:groupContext="shape" transform="translate(325.852,-146.773)">
			<title>Sheet.1038</title>
			<path d="M1.2 165.82 L0.92 165.82 L0.6 165.87 L0.28 165.92 L0 166.03" class="st2"/>
		</g>
		<g id="shape1039-114" v:mID="1039" v:groupContext="shape" transform="translate(327.053,-147.036)">
			<title>Sheet.1039</title>
			<path d="M0 166.03 L18.82 165.61" class="st2"/>
		</g>
		<g id="shape1040-117" v:mID="1040" v:groupContext="shape" transform="translate(345.869,-143.308)">
			<title>Sheet.1040</title>
			<path d="M-0 161.88 L2.25 166.03" class="st2"/>
		</g>
		<g id="shape1041-120" v:mID="1041" v:groupContext="shape" transform="translate(242.21,-121.621)">
			<title>Sheet.1041</title>
			<path d="M-0 166.03 L83.61 140.82" class="st2"/>
		</g>
		<g id="shape1042-123" v:mID="1042" v:groupContext="shape" transform="translate(345.9,-116.579)">
			<title>Sheet.1042</title>
			<path d="M1.55 166.03 L0 143.03" class="st2"/>
		</g>
		<g id="shape1043-126" v:mID="1043" v:groupContext="shape" transform="translate(340.556,-136.691)">
			<title>Sheet.1043</title>
			<path d="M0.6 164.61 L0.41 164.72 L0.25 164.87 L0.13 165.14 L0.06 165.4 L0 165.71 L0 166.03" class="st2"/>
		</g>
		<g id="shape1044-129" v:mID="1044" v:groupContext="shape" transform="translate(340.556,-135.221)">
			<title>Sheet.1044</title>
			<path d="M0.73 163.04 L1.01 163.09 L1.26 163.25 L1.52 163.51 L1.68 163.88 L1.8 164.3 L1.83 164.72 L1.77 165.19 L1.64
						 165.56 L1.45 165.82 L1.2 165.98 L0.95 166.03 L0.66 165.92 L0.41 165.71 L0.22 165.4 L0.06 164.98 L0 164.56"
					class="st2"/>
		</g>
		<g id="shape1045-132" v:mID="1045" v:groupContext="shape" transform="translate(340.556,-136.691)">
			<title>Sheet.1045</title>
			<path d="M0 166.03 L0.06 166.03" class="st2"/>
		</g>
		<g id="shape1046-135" v:mID="1046" v:groupContext="shape" transform="translate(331.733,-135.011)">
			<title>Sheet.1046</title>
			<path d="M0 165.71 L0.16 165.87 L0.32 165.98 L0.51 166.03 L0.7 166.03 L0.89 165.92 L1.04 165.77 L1.17 165.56 L1.3 165.35"
					class="st2"/>
		</g>
		<g id="shape1047-138" v:mID="1047" v:groupContext="shape" transform="translate(332.176,-121.515)">
			<title>Sheet.1047</title>
			<path d="M0 164.51 L0.03 164.09 L0.13 163.67 L0.28 163.35 L0.51 163.14 L0.76 163.04 L1.04 163.04 L1.3 163.19 L1.52 163.46
						 L1.71 163.82 L1.8 164.24 L1.83 164.72 L1.8 165.14 L1.68 165.5 L1.45 165.82 L1.23 165.98 L0.95 166.03 L0.7
						 165.92 L0.44 165.71 L0.22 165.35 L0.09 164.98 L0 164.51 L0 164.51" class="st2"/>
		</g>
		<g id="shape1048-141" v:mID="1048" v:groupContext="shape" transform="translate(341.441,-121.726)">
			<title>Sheet.1048</title>
			<path d="M1.83 164.51 L1.83 164.93 L1.74 165.35 L1.58 165.66 L1.36 165.92 L1.08 166.03 L0.82 165.98 L0.54 165.82 L0.32
						 165.56 L0.13 165.19 L0.03 164.77 L0 164.3 L0.06 163.88 L0.19 163.51 L0.38 163.25 L0.63 163.09 L0.89 163.04
						 L1.17 163.14 L1.42 163.35 L1.61 163.67 L1.77 164.03 L1.83 164.51 L1.83 164.51" class="st2"/>
		</g>
		<g id="shape1049-144" v:mID="1049" v:groupContext="shape" transform="translate(329.52,-116.212)">
			<title>Sheet.1049</title>
			<path d="M-0 166.03 L17.93 165.66" class="st2"/>
		</g>
		<g id="shape1050-147" v:mID="1050" v:groupContext="shape" transform="translate(346.406,-117.525)">
			<title>Sheet.1050</title>
			<path d="M1.45 166.03 L-0 143.82" class="st2"/>
		</g>
		<g id="shape1051-150" v:mID="1051" v:groupContext="shape" transform="translate(347.45,-116.579)">
			<title>Sheet.1051</title>
			<path d="M-0 166.03 L0.41 165.08" class="st2"/>
		</g>
		<g id="shape1052-153" v:mID="1052" v:groupContext="shape" transform="translate(340.999,-136.166)">
			<title>Sheet.1052</title>
			<path d="M0 164.56 L0.06 164.93 L0.16 165.29 L0.32 165.56 L0.47 165.82 L0.7 165.98 L0.92 166.03 L1.14 166.03 L1.36 165.92"
					class="st2"/>
		</g>
		<g id="shape1053-156" v:mID="1053" v:groupContext="shape" transform="translate(340.999,-137.584)">
			<title>Sheet.1053</title>
			<path d="M0 165.56 L0 166.03" class="st2"/>
		</g>
		<g id="shape1054-159" v:mID="1054" v:groupContext="shape" transform="translate(341.884,-122.671)">
			<title>Sheet.1054</title>
			<path d="M0 164.56 L0.06 164.93 L0.16 165.29 L0.32 165.56 L0.47 165.82 L0.7 165.98 L0.92 166.03 L1.14 166.03 L1.36 165.92"
					class="st2"/>
		</g>
		<g id="shape1055-162" v:mID="1055" v:groupContext="shape" transform="translate(341.884,-124.141)">
			<title>Sheet.1055</title>
			<path d="M0 165.56 L0 165.61 L0 166.03" class="st2"/>
		</g>
		<g id="shape1056-165" v:mID="1056" v:groupContext="shape" transform="translate(328.318,-115.949)">
			<title>Sheet.1056</title>
			<path d="M1.2 165.82 L0.92 165.82 L0.6 165.87 L0.28 165.92 L0 166.03" class="st2"/>
		</g>
		<g id="shape1057-168" v:mID="1057" v:groupContext="shape" transform="translate(332.619,-122.461)">
			<title>Sheet.1057</title>
			<path d="M0 164.56 L0.06 164.93 L0.16 165.29 L0.32 165.56 L0.47 165.82 L0.7 165.98 L0.92 166.03 L1.14 166.03 L1.36 165.92"
					class="st2"/>
		</g>
		<g id="shape1058-171" v:mID="1058" v:groupContext="shape" transform="translate(332.619,-123.931)">
			<title>Sheet.1058</title>
			<path d="M0.03 165.56 L0 165.61 L0 166.03" class="st2"/>
		</g>
		<g id="shape1059-174" v:mID="1059" v:groupContext="shape" transform="translate(19.8738,-42.1708)">
			<title>Sheet.1059</title>
			<path d="M0.35 165.77 L-0 166.03" class="st2"/>
		</g>
		<g id="shape1060-177" v:mID="1060" v:groupContext="shape" transform="translate(33.4714,-27.205)">
			<title>Sheet.1060</title>
			<path d="M1.2 166.03 L-0 147.91" class="st2"/>
		</g>
		<g id="shape1061-180" v:mID="1061" v:groupContext="shape" transform="translate(34.5781,-27.7301)">
			<title>Sheet.1061</title>
			<path d="M-0 148.12 L1.17 166.03" class="st2"/>
		</g>
		<g id="shape1062-183" v:mID="1062" v:groupContext="shape" transform="translate(327.116,-116.002)">
			<title>Sheet.1062</title>
			<path d="M1.2 166.03 L0 148.12" class="st2"/>
		</g>
		<g id="shape1063-186" v:mID="1063" v:groupContext="shape" transform="translate(328.318,-116.212)">
			<title>Sheet.1063</title>
			<path d="M0 147.96 L1.2 166.03" class="st2"/>
		</g>
	</g>
</svg>
