<?xml version="1.0" encoding="UTF-8" standalone="no"?>
<!DOCTYPE svg PUBLIC "-//W3C//DTD SVG 1.1//EN" "http://www.w3.org/Graphics/SVG/1.1/DTD/svg11.dtd">
<!-- Generated by Microsoft Visio, SVG Export Bunnplate1.svg Page-1 -->
<svg xmlns="http://www.w3.org/2000/svg" xmlns:xlink="http://www.w3.org/1999/xlink" xmlns:ev="http://www.w3.org/2001/xml-events"
		xmlns:v="http://schemas.microsoft.com/visio/2003/SVGExtensions/" width="11.6667in" height="11.0146in"
		viewBox="0 0 840.006 793.05" xml:space="preserve" color-interpolation-filters="sRGB" class="st8">
	<v:documentProperties v:langID="1044" v:metric="true" v:viewMarkup="false">
		<v:userDefs>
			<v:ud v:nameU="msvNoAutoConnect" v:val="VT0(1):26"/>
		</v:userDefs>
	</v:documentProperties>

	<style type="text/css">
	<![CDATA[
		.st1 {stroke:#000000;stroke-linecap:round;stroke-linejoin:round;stroke-width:0.20001}
		.st2 {marker-end:url(#mrkr5-123);stroke:#000000;stroke-linecap:round;stroke-linejoin:round;stroke-width:1.5}
		.st3 {fill:#000000;fill-opacity:1;stroke:#000000;stroke-opacity:1;stroke-width:0.37313432835821}
		.st4 {fill:none;stroke:none;stroke-linecap:round;stroke-linejoin:round;stroke-width:0.75}
		.st5 {fill:#000000;font-family:Times New Roman;font-size:1.00001em}
		.st6 {marker-start:url(#mrkr5-143);stroke:#000000;stroke-linecap:round;stroke-linejoin:round;stroke-width:1.5}
		.st7 {fill:#000000;fill-opacity:1;stroke:#000000;stroke-opacity:1;stroke-width:0.51020408163265}
		.st8 {fill:none;fill-rule:evenodd;font-size:12px;overflow:visible;stroke-linecap:square;stroke-miterlimit:3}
	]]>
	</style>

	<defs id="Markers">
		<g id="lend5">
			<path d="M 2 1 L 0 0 L 1.98117 -0.993387 C 1.67173 -0.364515 1.67301 0.372641 1.98465 1.00043 " style="stroke:none"/>
		</g>
		<marker id="mrkr5-123" class="st3" v:arrowType="5" v:arrowSize="2" v:setback="4.69" refX="-4.69" orient="auto"
				markerUnits="strokeWidth" overflow="visible">
			<use xlink:href="#lend5" transform="scale(-2.68,-2.68) "/>
		</marker>
		<marker id="mrkr5-143" class="st7" v:arrowType="5" v:arrowSize="0" v:setback="3.19" refX="3.19" orient="auto"
				markerUnits="strokeWidth" overflow="visible">
			<use xlink:href="#lend5" transform="scale(1.96) "/>
		</marker>
	</defs>
	<g v:mID="0" v:index="1" v:groupContext="foregroundPage">
		<title>Page-1</title>
		<v:pageProperties v:drawingScale="0.0393701" v:pageScale="0.0393701" v:drawingUnits="24" v:shadowOffsetX="8.50394"
				v:shadowOffsetY="-8.50394"/>
		<g id="shape82-1" v:mID="82" v:groupContext="shape" transform="translate(19.4066,-449.69)">
			<title>Sheet.82</title>
			<path d="M-0 790.34 L0.09 793.05" class="st1"/>
		</g>
		<g id="shape83-4" v:mID="83" v:groupContext="shape" transform="translate(18.1,-561.58)">
			<title>Sheet.83</title>
			<path d="M0 790.45 L0.19 793.05" class="st1"/>
		</g>
		<g id="shape84-7" v:mID="84" v:groupContext="shape" transform="translate(417.357,-721.391)">
			<title>Sheet.84</title>
			<path d="M0.19 793.05 L-0 790.45" class="st1"/>
		</g>
		<g id="shape85-10" v:mID="85" v:groupContext="shape" transform="translate(27.6194,-402.094)">
			<title>Sheet.85</title>
			<path d="M0 750.66 L165.75 793.05" class="st1"/>
		</g>
		<g id="shape86-13" v:mID="86" v:groupContext="shape" transform="translate(19.4066,-444.486)">
			<title>Sheet.86</title>
			<path d="M1.21 781.02 L0.75 781.88 L0.37 782.64 L0.19 783.4 L0 784.27 L0 785.03 L0.09 785.89 L0.28 786.65 L0.56 787.41
						 L0.93 788.17 L1.4 788.93 L1.96 789.58 L2.61 790.23 L3.36 790.77 L4.2 791.42 L5.13 791.86 L6.16 792.29 L7.19
						 792.73 L8.21 793.05" class="st1"/>
		</g>
		<g id="shape87-16" v:mID="87" v:groupContext="shape" transform="translate(20.6199,-456.521)">
			<title>Sheet.87</title>
			<path d="M51.05 714.99 L0 793.05" class="st1"/>
		</g>
		<g id="shape88-19" v:mID="88" v:groupContext="shape" transform="translate(64.6706,-534.583)">
			<title>Sheet.88</title>
			<path d="M0 781.12 L1.03 781.45 L2.05 781.77 L3.08 782.21 L4.01 782.75 L4.85 783.29 L5.6 783.94 L6.25 784.59 L6.81 785.24
						 L7.28 786 L7.75 786.65 L8.03 787.52 L8.12 788.28 L8.21 789.04 L8.21 789.91 L8.03 790.67 L7.84 791.53 L7.47
						 792.29 L7 793.05" class="st1"/>
		</g>
		<g id="shape89-22" v:mID="89" v:groupContext="shape" transform="translate(26.4062,-546.509)">
			<title>Sheet.89</title>
			<path d="M0 783.18 L38.26 793.05" class="st1"/>
		</g>
		<g id="shape90-25" v:mID="90" v:groupContext="shape" transform="translate(18.1,-556.375)">
			<title>Sheet.90</title>
			<path d="M1.21 781.12 L0.84 781.88 L0.47 782.75 L0.19 783.51 L0.09 784.27 L0 785.14 L0.09 785.89 L0.28 786.76 L0.56 787.52
						 L0.93 788.28 L1.4 788.93 L2.05 789.69 L2.71 790.34 L3.45 790.88 L4.29 791.42 L5.23 791.97 L6.16 792.4 L7.19
						 792.73 L8.31 793.05" class="st1"/>
		</g>
		<g id="shape91-28" v:mID="91" v:groupContext="shape" transform="translate(19.3133,-568.302)">
			<title>Sheet.91</title>
			<path d="M113.58 619.47 L0 793.05" class="st1"/>
		</g>
		<g id="shape92-31" v:mID="92" v:groupContext="shape" transform="translate(132.893,-741.882)">
			<title>Sheet.92</title>
			<path d="M18.48 787.63 L17.27 787.41 L16.15 787.2 L14.93 787.09 L13.72 787.09 L12.51 787.09 L11.29 787.2 L10.08 787.3
						 L8.96 787.52 L7.75 787.85 L6.63 788.28 L5.6 788.71 L4.57 789.15 L3.64 789.69 L2.71 790.23 L1.96 790.88 L1.21
						 791.64 L0.56 792.29 L0 793.05" class="st1"/>
		</g>
		<g id="shape93-34" v:mID="93" v:groupContext="shape" transform="translate(151.372,-737.545)">
			<title>Sheet.93</title>
			<path d="M38.17 793.05 L-0 783.29" class="st1"/>
		</g>
		<g id="shape94-37" v:mID="94" v:groupContext="shape" transform="translate(189.543,-736.895)">
			<title>Sheet.94</title>
			<path d="M18.48 786.98 L17.92 787.74 L17.27 788.5 L16.52 789.15 L15.77 789.8 L14.84 790.45 L13.91 790.88 L12.88 791.42
						 L11.85 791.86 L10.73 792.18 L9.52 792.51 L8.4 792.73 L7.19 792.94 L5.97 793.05 L4.76 793.05 L3.55 792.94
						 L2.33 792.83 L1.12 792.73 L0 792.4" class="st1"/>
		</g>
		<g id="shape95-40" v:mID="95" v:groupContext="shape" transform="translate(208.022,-742.966)">
			<title>Sheet.95</title>
			<path d="M16.99 767.03 L0 793.05" class="st1"/>
		</g>
		<g id="shape96-43" v:mID="96" v:groupContext="shape" transform="translate(225.008,-768.987)">
			<title>Sheet.96</title>
			<path d="M18.48 787.63 L17.27 787.41 L16.15 787.2 L14.93 787.09 L13.72 787.09 L12.51 787.09 L11.29 787.2 L10.08 787.41
						 L8.96 787.63 L7.75 787.95 L6.63 788.28 L5.6 788.71 L4.57 789.15 L3.64 789.69 L2.71 790.34 L1.96 790.99 L1.21
						 791.64 L0.56 792.29 L0 793.05" class="st1"/>
		</g>
		<g id="shape97-46" v:mID="97" v:groupContext="shape" transform="translate(243.487,-731.908)">
			<title>Sheet.97</title>
			<path d="M165.66 793.05 L0 750.55" class="st1"/>
		</g>
		<g id="shape98-49" v:mID="98" v:groupContext="shape" transform="translate(409.144,-719.981)">
			<title>Sheet.98</title>
			<path d="M7 793.05 L7.47 792.29 L7.84 791.53 L8.12 790.67 L8.21 789.91 L8.21 789.15 L8.21 788.28 L8.03 787.52 L7.75 786.76
						 L7.28 786 L6.81 785.24 L6.25 784.59 L5.6 783.94 L4.85 783.29 L4.01 782.75 L3.08 782.32 L2.15 781.77 L1.03
						 781.45 L0 781.12" class="st1"/>
		</g>
		<g id="shape99-52" v:mID="99" v:groupContext="shape" transform="translate(211.755,-407.515)">
			<title>Sheet.99</title>
			<path d="M0 793.05 L204.39 480.58" class="st1"/>
		</g>
		<g id="shape100-55" v:mID="100" v:groupContext="shape" transform="translate(193.37,-401.443)">
			<title>Sheet.100</title>
			<path d="M0 792.4 L1.12 792.73 L2.24 792.83 L3.45 792.94 L4.67 793.05 L5.88 793.05 L7.09 792.94 L8.31 792.73 L9.52 792.51
						 L10.64 792.18 L11.76 791.86 L12.79 791.42 L13.81 790.88 L14.84 790.34 L15.68 789.8 L16.52 789.15 L17.17
						 788.5 L17.83 787.74 L18.39 786.98" class="st1"/>
		</g>
		<g id="shape101-58" v:mID="101" v:groupContext="shape" transform="translate(193.37,-399.383)">
			<title>Sheet.101</title>
			<path d="M-0 790.34 L0.09 793.05" class="st1"/>
		</g>
		<g id="shape102-61" v:mID="102" v:groupContext="shape" transform="translate(211.755,-404.804)">
			<title>Sheet.102</title>
			<path d="M0 790.34 L0.09 793.05" class="st1"/>
		</g>
		<g id="shape103-64" v:mID="103" v:groupContext="shape" transform="translate(193.463,-398.841)">
			<title>Sheet.103</title>
			<path d="M0 792.51 L1.12 792.73 L2.24 792.94 L3.45 793.05 L4.67 793.05 L5.88 793.05 L7.09 792.94 L8.31 792.83 L9.52 792.62
						 L10.64 792.29 L11.76 791.86 L12.88 791.42 L13.91 790.99 L14.84 790.45 L15.68 789.8 L16.52 789.26 L17.27
						 788.5 L17.83 787.85 L18.39 787.09" class="st1"/>
		</g>
		<g id="shape104-67" v:mID="104" v:groupContext="shape" transform="translate(27.6194,-441.884)">
			<title>Sheet.104</title>
			<path d="M-0 790.45 L0.19 793.05" class="st1"/>
		</g>
		<g id="shape105-70" v:mID="105" v:groupContext="shape" transform="translate(27.8061,-399.383)">
			<title>Sheet.105</title>
			<path d="M0 750.55 L165.66 793.05" class="st1"/>
		</g>
		<g id="shape106-73" v:mID="106" v:groupContext="shape" transform="translate(416.143,-717.271)">
			<title>Sheet.106</title>
			<path d="M0 790.34 L0.19 793.05" class="st1"/>
		</g>
		<g id="shape107-76" v:mID="107" v:groupContext="shape" transform="translate(369.106,-645.172)">
			<title>Sheet.107</title>
			<path d="M0 793.05 L47.22 720.95" class="st1"/>
		</g>
		<g id="shape108-79" v:mID="108" v:groupContext="shape" transform="translate(358.653,-629.125)">
			<title>Sheet.108</title>
			<path d="M-0 793.05 L10.45 777" class="st1"/>
		</g>
		<g id="shape109-82" v:mID="109" v:groupContext="shape" transform="translate(304.71,-546.726)">
			<title>Sheet.109</title>
			<path d="M-0 793.05 L53.94 710.65" class="st1"/>
		</g>
		<g id="shape110-85" v:mID="110" v:groupContext="shape" transform="translate(294.257,-530.788)">
			<title>Sheet.110</title>
			<path d="M0 793.05 L10.45 777.11" class="st1"/>
		</g>
		<g id="shape111-88" v:mID="111" v:groupContext="shape" transform="translate(211.849,-404.804)">
			<title>Sheet.111</title>
			<path d="M0 793.05 L82.41 667.07" class="st1"/>
		</g>
		<g id="shape112-91" v:mID="112" v:groupContext="shape" transform="translate(19.4999,-441.884)">
			<title>Sheet.112</title>
			<path d="M0 785.24 L0.09 785.89 L0.28 786.65 L0.56 787.52 L0.93 788.17 L1.4 788.93 L1.96 789.58 L2.71 790.23 L3.45 790.88
						 L4.29 791.42 L5.13 791.97 L6.16 792.4 L7.19 792.73 L8.31 793.05" class="st1"/>
		</g>
		<g id="shape113-94" v:mID="113" v:groupContext="shape" transform="translate(64.6706,-543.907)">
			<title>Sheet.113</title>
			<path d="M0 790.45 L0.09 793.05" class="st1"/>
		</g>
		<g id="shape114-97" v:mID="114" v:groupContext="shape" transform="translate(64.7639,-537.294)">
			<title>Sheet.114</title>
			<path d="M0 786.44 L1.12 786.76 L2.15 787.2 L3.08 787.63 L4.01 788.06 L4.85 788.71 L5.6 789.26 L6.25 789.91 L6.81 790.56
						 L7.37 791.32 L7.75 792.07 L8.03 792.83 L8.03 793.05" class="st1"/>
		</g>
		<g id="shape115-100" v:mID="115" v:groupContext="shape" transform="translate(26.4062,-553.665)">
			<title>Sheet.115</title>
			<path d="M0 790.34 L0.09 793.05" class="st1"/>
		</g>
		<g id="shape116-103" v:mID="116" v:groupContext="shape" transform="translate(26.4995,-549.111)">
			<title>Sheet.116</title>
			<path d="M-0 788.5 L17.83 793.05" class="st1"/>
		</g>
		<g id="shape117-106" v:mID="117" v:groupContext="shape" transform="translate(44.3251,-543.907)">
			<title>Sheet.117</title>
			<path d="M0 787.85 L20.44 793.05" class="st1"/>
		</g>
		<g id="shape118-109" v:mID="118" v:groupContext="shape" transform="translate(18.2867,-554.532)">
			<title>Sheet.118</title>
			<path d="M0 786 L0 786.65 L0.19 787.41 L0.47 788.17 L0.84 788.93 L1.31 789.69 L1.87 790.34 L2.43 790.99 L3.17 791.53
						 L4.01 792.18 L4.85 792.62 L5.79 793.05" class="st1"/>
		</g>
		<g id="shape119-112" v:mID="119" v:groupContext="shape" transform="translate(24.073,-553.665)">
			<title>Sheet.119</title>
			<path d="M0 792.18 L1.21 792.62 L2.43 793.05" class="st1"/>
		</g>
		<g id="shape120-115" v:mID="120" v:groupContext="shape" transform="translate(416.237,-717.271)">
			<title>Sheet.120</title>
			<path d="M0 793.05 L0.56 792.07 L0.93 791.1 L1.12 790.01 L1.21 788.93" class="st1"/>
		</g>
		<g id="shape1000-118" v:mID="1000" v:groupContext="shape" transform="translate(-313.069,-119.58) rotate(-56.3099)">
			<title>Sheet.1000</title>
			<path d="M0 793.05 L43.81 793.05" class="st2"/>
		</g>
		<g id="shape1001-124" v:mID="1001" v:groupContext="shape" transform="translate(543.294,-447.994) rotate(14.3464)">
			<title>Sheet.1001</title>
			<path d="M0 793.05 L41.77 793.05" class="st2"/>
		</g>
		<g id="shape1003-129" v:mID="1003" v:groupContext="shape" transform="translate(368.787,-449.291)">
			<title>Sheet.1003</title>
			<desc>x</desc>
			<v:textBlock v:margins="rect(4,4,4,4)" v:tabSpace="42.5197"/>
			<v:textRect cx="31.4646" cy="773.208" width="62.93" height="39.685"/>
			<rect x="0" y="753.365" width="62.9291" height="39.685" class="st4"/>
			<text x="28.46" y="776.81" class="st5" v:langID="1044"><v:paragraph v:horizAlign="1"/><v:tabList/>x</text>		</g>
		<g id="shape1004-132" v:mID="1004" v:groupContext="shape" transform="translate(352.346,-491.811)">
			<title>Sheet.1004</title>
			<desc>y</desc>
			<v:textBlock v:margins="rect(4,4,4,4)" v:tabSpace="42.5197"/>
			<v:textRect cx="31.4646" cy="773.208" width="62.93" height="39.685"/>
			<rect x="0" y="753.365" width="62.9291" height="39.685" class="st4"/>
			<text x="28.46" y="776.81" class="st5" v:langID="1044"><v:paragraph v:horizAlign="1"/><v:tabList/>y</text>		</g>
		<g id="shape1005-135" v:mID="1005" v:groupContext="shape" transform="translate(306.425,-503.15)">
			<title>Sheet.1005</title>
			<desc>z</desc>
			<v:textBlock v:margins="rect(4,4,4,4)" v:tabSpace="42.5197"/>
			<v:textRect cx="31.4646" cy="773.208" width="62.93" height="39.685"/>
			<rect x="0" y="753.365" width="62.9291" height="39.685" class="st4"/>
			<text x="28.8" y="776.81" class="st5" v:langID="1044"><v:paragraph v:horizAlign="1"/><v:tabList/>z</text>		</g>
		<g id="shape1006-138" v:mID="1006" v:groupContext="shape" transform="translate(346.789,-472.725)">
			<title>Sheet.1006</title>
			<path d="M0.01 744.73 L0.01 745.09 L0.09 793.05" class="st6"/>
		</g>
	</g>
</svg>
