<?xml version="1.0" encoding="UTF-8" standalone="no"?>
<!DOCTYPE svg PUBLIC "-//W3C//DTD SVG 1.1//EN" "http://www.w3.org/Graphics/SVG/1.1/DTD/svg11.dtd">
<!-- Generated by Microsoft Visio, SVG Export Vinkeljern.svg Page-1 -->
<svg xmlns="http://www.w3.org/2000/svg" xmlns:xlink="http://www.w3.org/1999/xlink" xmlns:ev="http://www.w3.org/2001/xml-events"
		xmlns:v="http://schemas.microsoft.com/visio/2003/SVGExtensions/" width="36.5333in" height="5.75535in"
		viewBox="0 0 2630.4 414.385" xml:space="preserve" color-interpolation-filters="sRGB" class="st6">
	<v:documentProperties v:langID="1044" v:metric="true" v:viewMarkup="false">
		<v:userDefs>
			<v:ud v:nameU="msvNoAutoConnect" v:val="VT0(1):26"/>
		</v:userDefs>
	</v:documentProperties>

	<style type="text/css">
	<![CDATA[
		.st1 {fill:none;stroke:none;stroke-linecap:round;stroke-linejoin:round;stroke-width:0.75}
		.st2 {stroke:#000000;stroke-linecap:round;stroke-linejoin:round;stroke-width:0.64009}
		.st3 {marker-end:url(#mrkr5-152);stroke:#000000;stroke-linecap:round;stroke-linejoin:round;stroke-width:0.75}
		.st4 {fill:#000000;fill-opacity:1;stroke:#000000;stroke-opacity:1;stroke-width:0.22935779816514}
		.st5 {fill:#000000;font-family:Times New Roman;font-size:1.00001em}
		.st6 {fill:none;fill-rule:evenodd;font-size:12px;overflow:visible;stroke-linecap:square;stroke-miterlimit:3}
	]]>
	</style>

	<defs id="Markers">
		<g id="lend5">
			<path d="M 2 1 L 0 0 L 1.98117 -0.993387 C 1.67173 -0.364515 1.67301 0.372641 1.98465 1.00043 " style="stroke:none"/>
		</g>
		<marker id="mrkr5-152" class="st4" v:arrowType="5" v:arrowSize="2" v:setback="7.63" refX="-7.63" orient="auto"
				markerUnits="strokeWidth" overflow="visible">
			<use xlink:href="#lend5" transform="scale(-4.36,-4.36) "/>
		</marker>
	</defs>
	<g v:mID="0" v:index="1" v:groupContext="foregroundPage">
		<title>Page-1</title>
		<v:pageProperties v:drawingScale="0.0393701" v:pageScale="0.0393701" v:drawingUnits="24" v:shadowOffsetX="8.50394"
				v:shadowOffsetY="-8.50394"/>
		<g id="shape55-1" v:mID="55" v:groupContext="shape" transform="translate(122.322,-222.452)">
			<title>Sheet.55</title>
			<rect x="0" y="353.373" width="418.84" height="61.0124" class="st1"/>
		</g>
		<g id="shape56-3" v:mID="56" v:groupContext="shape" transform="translate(127.209,-247.547)">
			<title>Sheet.56</title>
			<path d="M0.1 411.27 L-0 414.39" class="st2"/>
		</g>
		<g id="shape57-6" v:mID="57" v:groupContext="shape" transform="translate(127.31,-250.665)">
			<title>Sheet.57</title>
			<path d="M-0 414.39 L24.33 412.89" class="st2"/>
		</g>
		<g id="shape58-9" v:mID="58" v:groupContext="shape" transform="translate(151.643,-252.157)">
			<title>Sheet.58</title>
			<path d="M0 414.39 L248.48 399.74" class="st2"/>
		</g>
		<g id="shape59-12" v:mID="59" v:groupContext="shape" transform="translate(400.12,-266.797)">
			<title>Sheet.59</title>
			<path d="M-0 414.39 L141.25 405.98" class="st2"/>
		</g>
		<g id="shape60-15" v:mID="60" v:groupContext="shape" transform="translate(541.271,-271.948)">
			<title>Sheet.60</title>
			<path d="M0.1 411.13 L0 414.39" class="st2"/>
		</g>
		<g id="shape61-18" v:mID="61" v:groupContext="shape" transform="translate(127.209,-247.547)">
			<title>Sheet.61</title>
			<path d="M0 414.39 L414.06 389.98" class="st2"/>
		</g>
		<g id="shape62-21" v:mID="62" v:groupContext="shape" transform="translate(123.574,-250.665)">
			<title>Sheet.62</title>
			<path d="M0 410.18 L3.74 414.39" class="st2"/>
		</g>
		<g id="shape63-24" v:mID="63" v:groupContext="shape" transform="translate(123.574,-254.868)">
			<title>Sheet.63</title>
			<path d="M16.66 408.69 L0 414.39" class="st2"/>
		</g>
		<g id="shape64-27" v:mID="64" v:groupContext="shape" transform="translate(140.233,-260.561)">
			<title>Sheet.64</title>
			<path d="M1.31 414.11 L0.61 414.25 L0 414.39" class="st2"/>
		</g>
		<g id="shape65-30" v:mID="65" v:groupContext="shape" transform="translate(141.546,-260.832)">
			<title>Sheet.65</title>
			<path d="M0 414.39 L15.65 413.44" class="st2"/>
		</g>
		<g id="shape67-33" v:mID="67" v:groupContext="shape" transform="translate(123.473,-251.614)">
			<title>Sheet.67</title>
			<path d="M0.1 411.13 L0 414.39" class="st2"/>
		</g>
		<g id="shape68-36" v:mID="68" v:groupContext="shape" transform="translate(123.473,-247.547)">
			<title>Sheet.68</title>
			<path d="M0 410.32 L3.74 414.39" class="st2"/>
		</g>
		<g id="shape69-39" v:mID="69" v:groupContext="shape" transform="translate(124.987,-247.954)">
			<title>Sheet.69</title>
			<path d="M0.4 412.76 L0.2 413.17 L0.1 413.57 L0 413.98 L0 414.39" class="st2"/>
		</g>
		<g id="shape70-42" v:mID="70" v:groupContext="shape" transform="translate(123.978,-222.469)">
			<title>Sheet.70</title>
			<path d="M0 414.39 L1.01 389.04" class="st2"/>
		</g>
		<g id="shape71-45" v:mID="71" v:groupContext="shape" transform="translate(122.362,-222.469)">
			<title>Sheet.71</title>
			<path d="M1.62 414.39 L-0 413.71" class="st2"/>
		</g>
		<g id="shape72-48" v:mID="72" v:groupContext="shape" transform="translate(122.362,-223.147)">
			<title>Sheet.72</title>
			<path d="M0 414.39 L1.11 385.92" class="st2"/>
		</g>
		<g id="shape73-51" v:mID="73" v:groupContext="shape" transform="translate(157.196,-261.781)">
			<title>Sheet.73</title>
			<path d="M0 414.39 L248.48 399.61" class="st2"/>
		</g>
		<g id="shape75-54" v:mID="75" v:groupContext="shape" transform="translate(179.509,-257.85)">
			<title>Sheet.75</title>
			<path d="M1.31 413.03 L0.91 413.03 L0.5 413.17 L0.3 413.3 L0.1 413.44 L0 413.57 L0.1 413.71 L0.3 413.98 L0.5 414.11 L0.91
						 414.25 L1.31 414.25 L1.82 414.39 L2.22 414.39 L2.73 414.39 L3.03 414.25 L3.33 414.11 L3.63 413.98 L3.74
						 413.84 L3.74 413.71 L3.53 413.57 L3.33 413.44 L3.03 413.3 L2.63 413.17 L2.22 413.03 L1.72 413.03 L1.31 413.03
						 L1.31 413.03" class="st2"/>
		</g>
		<g id="shape76-57" v:mID="76" v:groupContext="shape" transform="translate(360.845,-268.559)">
			<title>Sheet.76</title>
			<path d="M1.31 413.03 L0.91 413.03 L0.5 413.17 L0.3 413.3 L0.1 413.44 L0 413.57 L0.1 413.71 L0.3 413.84 L0.61 414.11
						 L0.91 414.11 L1.31 414.25 L1.82 414.39 L2.22 414.39 L2.73 414.39 L3.03 414.25 L3.43 414.11 L3.63 413.98
						 L3.74 413.84 L3.74 413.71 L3.63 413.57 L3.33 413.3 L3.03 413.17 L2.63 413.17 L2.22 413.03 L1.72 413.03 L1.31
						 413.03 L1.31 413.03" class="st2"/>
		</g>
		<g id="shape77-60" v:mID="77" v:groupContext="shape" transform="translate(123.978,-222.469)">
			<title>Sheet.77</title>
			<path d="M15.85 408.83 L0 414.39" class="st2"/>
		</g>
		<g id="shape78-63" v:mID="78" v:groupContext="shape" transform="translate(128.117,-243.752)">
			<title>Sheet.78</title>
			<path d="M1.62 412.49 L1.62 412.08 L1.51 411.67 L1.31 411.4 L1.11 411.27 L0.91 411.13 L0.71 411.27 L0.4 411.54 L0.2 411.95
						 L0.1 412.35 L0 412.89 L0 413.3 L0 413.71 L0.1 414.11 L0.3 414.25 L0.5 414.39 L0.81 414.39 L1.01 414.11 L1.21
						 413.84 L1.41 413.44 L1.51 413.03 L1.62 412.49 L1.62 412.49" class="st2"/>
		</g>
		<g id="shape79-66" v:mID="79" v:groupContext="shape" transform="translate(136.296,-246.599)">
			<title>Sheet.79</title>
			<path d="M0 412.89 L0 413.03 L0 413.57 L0.1 413.98 L0.2 414.25 L0.4 414.39 L0.71 414.39 L0.91 414.25 L1.11 413.98 L1.31
						 413.71 L1.51 413.17 L1.51 412.89" class="st2"/>
		</g>
		<g id="shape80-69" v:mID="80" v:groupContext="shape" transform="translate(135.69,-232.365)">
			<title>Sheet.80</title>
			<path d="M1.62 412.49 L1.62 412.08 L1.51 411.67 L1.41 411.4 L1.21 411.27 L1.01 411.27 L0.71 411.4 L0.5 411.54 L0.3 411.95
						 L0.2 412.35 L0.1 412.89 L0 413.3 L0.1 413.71 L0.2 414.11 L0.4 414.39 L0.61 414.39 L0.81 414.39 L1.11 414.25
						 L1.31 413.84 L1.51 413.44 L1.62 413.03 L1.62 412.49 L1.62 412.49" class="st2"/>
		</g>
		<g id="shape81-72" v:mID="81" v:groupContext="shape" transform="translate(127.512,-229.518)">
			<title>Sheet.81</title>
			<path d="M0 413.17 L0.1 413.57 L0.1 413.98 L0.3 414.25 L0.5 414.39 L0.71 414.39 L1.01 414.39 L1.21 414.11 L1.41 413.71
						 L1.51 413.3 L1.62 412.76 L1.62 412.35 L1.62 411.95 L1.51 411.54 L1.31 411.27 L1.11 411.27 L0.81 411.27 L0.61
						 411.4 L0.4 411.81 L0.2 412.22 L0.1 412.62 L0 413.17 L0 413.17" class="st2"/>
		</g>
		<g id="shape82-75" v:mID="82" v:groupContext="shape" transform="translate(139.829,-228.027)">
			<title>Sheet.82</title>
			<path d="M1.31 414.11 L0.61 414.25 L0 414.39" class="st2"/>
		</g>
		<g id="shape83-78" v:mID="83" v:groupContext="shape" transform="translate(141.142,-228.298)">
			<title>Sheet.83</title>
			<path d="M0 414.39 L369.84 392.56" class="st2"/>
		</g>
		<g id="shape84-81" v:mID="84" v:groupContext="shape" transform="translate(511.385,-282.658)">
			<title>Sheet.84</title>
			<path d="M1.62 414.39 L0.81 414.25 L0 414.25" class="st2"/>
		</g>
		<g id="shape85-84" v:mID="85" v:groupContext="shape" transform="translate(513.001,-279.404)">
			<title>Sheet.85</title>
			<path d="M-0 411.13 L24.74 414.39" class="st2"/>
		</g>
		<g id="shape86-87" v:mID="86" v:groupContext="shape" transform="translate(537.737,-275.202)">
			<title>Sheet.86</title>
			<path d="M0 410.18 L3.63 414.39" class="st2"/>
		</g>
		<g id="shape87-90" v:mID="87" v:groupContext="shape" transform="translate(405.674,-276.557)">
			<title>Sheet.87</title>
			<path d="M-0 414.39 L105.71 408.15" class="st2"/>
		</g>
		<g id="shape88-93" v:mID="88" v:groupContext="shape" transform="translate(536.122,-246.87)">
			<title>Sheet.88</title>
			<path d="M-0 414.39 L0.91 389.58" class="st2"/>
		</g>
		<g id="shape89-96" v:mID="89" v:groupContext="shape" transform="translate(529.66,-267.61)">
			<title>Sheet.89</title>
			<path d="M0 412.76 L0 412.22 L0.2 411.81 L0.5 411.54 L0.81 411.27 L1.11 411.27 L1.51 411.4 L1.82 411.54 L2.12 411.95
						 L2.32 412.35 L2.32 412.76 L2.32 413.3 L2.22 413.71 L2.02 414.11 L1.72 414.39 L1.41 414.39 L1.01 414.39 L0.71
						 414.25 L0.4 413.98 L0.1 413.57 L0 413.17 L0 412.76 L0 412.76" class="st2"/>
		</g>
		<g id="shape90-99" v:mID="90" v:groupContext="shape" transform="translate(517.544,-269.237)">
			<title>Sheet.90</title>
			<path d="M0 413.03 L0.1 413.57 L0.4 413.98 L0.71 414.25 L1.11 414.39 L1.51 414.25 L1.92 413.98 L2.12 413.44 L2.22 412.89"
					class="st2"/>
		</g>
		<g id="shape91-102" v:mID="91" v:groupContext="shape" transform="translate(516.938,-254.868)">
			<title>Sheet.91</title>
			<path d="M0 412.62 L0.1 412.08 L0.2 411.67 L0.5 411.4 L0.81 411.27 L1.11 411.13 L1.51 411.27 L1.82 411.4 L2.12 411.81
						 L2.32 412.22 L2.42 412.62 L2.32 413.17 L2.22 413.57 L2.02 413.98 L1.72 414.25 L1.41 414.39 L1.01 414.25
						 L0.71 414.11 L0.4 413.84 L0.2 413.44 L0 413.03 L0 412.62 L0 412.62" class="st2"/>
		</g>
		<g id="shape92-105" v:mID="92" v:groupContext="shape" transform="translate(529.054,-253.241)">
			<title>Sheet.92</title>
			<path d="M2.42 412.89 L2.32 413.44 L2.22 413.84 L1.92 414.11 L1.62 414.25 L1.31 414.39 L0.91 414.25 L0.61 414.11 L0.3
						 413.71 L0.1 413.3 L0 412.89 L0.1 412.35 L0.2 411.95 L0.4 411.54 L0.71 411.27 L1.01 411.13 L1.41 411.13 L1.72
						 411.4 L2.02 411.67 L2.22 411.95 L2.42 412.49 L2.42 412.89 L2.42 412.89" class="st2"/>
		</g>
		<g id="shape93-108" v:mID="93" v:groupContext="shape" transform="translate(512.597,-246.87)">
			<title>Sheet.93</title>
			<path d="M-0 411.13 L23.53 414.39" class="st2"/>
		</g>
		<g id="shape94-111" v:mID="94" v:groupContext="shape" transform="translate(536.526,-247.683)">
			<title>Sheet.94</title>
			<path d="M-0 414.39 L0.91 390.26" class="st2"/>
		</g>
		<g id="shape95-114" v:mID="95" v:groupContext="shape" transform="translate(536.122,-246.87)">
			<title>Sheet.95</title>
			<path d="M-0 414.39 L0.4 413.57" class="st2"/>
		</g>
		<g id="shape96-117" v:mID="96" v:groupContext="shape" transform="translate(530.064,-268.288)">
			<title>Sheet.96</title>
			<path d="M0.1 412.22 L0 412.89 L0.2 413.57 L0.5 414.11 L0.91 414.39 L1.41 414.39 L1.92 414.11" class="st2"/>
		</g>
		<g id="shape97-120" v:mID="97" v:groupContext="shape" transform="translate(518.15,-269.915)">
			<title>Sheet.97</title>
			<path d="M0 413.71 L0.3 414.11 L0.81 414.39 L1.21 414.39 L1.72 414.11" class="st2"/>
		</g>
		<g id="shape98-123" v:mID="98" v:groupContext="shape" transform="translate(529.559,-254.054)">
			<title>Sheet.98</title>
			<path d="M0.1 412.22 L0 412.89 L0.2 413.57 L0.5 414.11 L0.91 414.39 L1.41 414.39 L1.92 414.11" class="st2"/>
		</g>
		<g id="shape99-126" v:mID="99" v:groupContext="shape" transform="translate(510.981,-249.988)">
			<title>Sheet.99</title>
			<path d="M1.62 414.39 L0.81 414.25 L0 414.25" class="st2"/>
		</g>
		<g id="shape100-129" v:mID="100" v:groupContext="shape" transform="translate(517.342,-255.681)">
			<title>Sheet.100</title>
			<path d="M0.1 412.22 L0 412.89 L0.2 413.57 L0.5 414.11 L0.91 414.39 L1.41 414.39 L1.92 414.11" class="st2"/>
		</g>
		<g id="shape101-132" v:mID="101" v:groupContext="shape" transform="translate(124.987,-247.819)">
			<title>Sheet.101</title>
			<path d="M1.41 413.84 L-0 414.39" class="st2"/>
		</g>
		<g id="shape102-135" v:mID="102" v:groupContext="shape" transform="translate(139.829,-228.027)">
			<title>Sheet.102</title>
			<path d="M-0 414.39 L0.81 394.19" class="st2"/>
		</g>
		<g id="shape103-138" v:mID="103" v:groupContext="shape" transform="translate(141.142,-228.298)">
			<title>Sheet.103</title>
			<path d="M0.81 394.32 L0 414.39" class="st2"/>
		</g>
		<g id="shape104-141" v:mID="104" v:groupContext="shape" transform="translate(510.981,-250.123)">
			<title>Sheet.104</title>
			<path d="M0 414.39 L0.81 394.32" class="st2"/>
		</g>
		<g id="shape105-144" v:mID="105" v:groupContext="shape" transform="translate(512.597,-250.123)">
			<title>Sheet.105</title>
			<path d="M0.71 394.19 L-0 414.39" class="st2"/>
		</g>
		<g id="shape1000-147" v:mID="1000" v:groupContext="shape" transform="translate(107.462,-228.813) rotate(7.55735)">
			<title>Sheet.1000</title>
			<path d="M0 414.39 L37.17 414.39" class="st3"/>
		</g>
		<g id="shape1001-153" v:mID="1001" v:groupContext="shape" transform="translate(-361.422,181.973) rotate(-90)">
			<title>Sheet.1001</title>
			<path d="M0 414.39 L37.5 414.39" class="st3"/>
		</g>
		<g id="shape1002-158" v:mID="1002" v:groupContext="shape" transform="translate(-148.669,-180.049) rotate(-29.1161)">
			<title>Sheet.1002</title>
			<path d="M0 414.39 L36.94 414.39" class="st3"/>
		</g>
		<g id="shape1003-163" v:mID="1003" v:groupContext="shape" transform="translate(77.3858,-203.528)">
			<title>Sheet.1003</title>
			<desc>x</desc>
			<v:textBlock v:margins="rect(4,4,4,4)" v:tabSpace="42.5197"/>
			<v:textRect cx="15.4488" cy="402.763" width="30.9" height="23.2441"/>
			<rect x="0" y="391.141" width="30.8976" height="23.2441" class="st1"/>
			<text x="12.45" y="406.36" class="st5" v:langID="1044"><v:paragraph v:horizAlign="1"/><v:tabList/>x</text>		</g>
		<g id="shape1004-166" v:mID="1004" v:groupContext="shape" transform="translate(80.4674,-251.614)">
			<title>Sheet.1004</title>
			<desc>y</desc>
			<v:textBlock v:margins="rect(4,4,4,4)" v:tabSpace="42.5197"/>
			<v:textRect cx="15.4488" cy="402.763" width="30.9" height="23.2441"/>
			<rect x="0" y="391.141" width="30.8976" height="23.2441" class="st1"/>
			<text x="12.45" y="406.36" class="st5" v:langID="1044"><v:paragraph v:horizAlign="1"/><v:tabList/>y</text>		</g>
		<g id="shape1005-169" v:mID="1005" v:groupContext="shape" transform="translate(46.4882,-269.291)">
			<title>Sheet.1005</title>
			<desc>z</desc>
			<v:textBlock v:margins="rect(4,4,4,4)" v:tabSpace="42.5197"/>
			<v:textRect cx="15.4488" cy="402.763" width="30.9" height="23.2441"/>
			<rect x="0" y="391.141" width="30.8976" height="23.2441" class="st1"/>
			<text x="12.79" y="406.36" class="st5" v:langID="1044"><v:paragraph v:horizAlign="1"/><v:tabList/>z</text>		</g>
	</g>
</svg>
